<svg width="16" height="16" viewBox="0 0 16 16" fill="none" xmlns="http://www.w3.org/2000/svg">
<rect width="16" height="16" fill="white"/>
<path d="M3.57422 5.3125V11H2.40625V5.3125H3.57422ZM5.84375 5.3125V11H4.67188V5.3125H5.84375ZM9.25 5.3125L6.99609 8.12109L5.69531 9.51953L5.48438 8.41016L6.36328 7.20703L7.8125 5.3125H9.25ZM7.91797 11L6.24219 8.37109L7.10938 7.64453L9.30469 11H7.91797ZM12.7188 9.51172C12.7188 9.41016 12.7031 9.31901 12.6719 9.23828C12.6432 9.15495 12.5885 9.07943 12.5078 9.01172C12.4271 8.94141 12.3138 8.8724 12.168 8.80469C12.0221 8.73698 11.8333 8.66667 11.6016 8.59375C11.3438 8.51042 11.099 8.41667 10.8672 8.3125C10.638 8.20833 10.4349 8.08724 10.2578 7.94922C10.0833 7.80859 9.94531 7.64583 9.84375 7.46094C9.74479 7.27604 9.69531 7.0612 9.69531 6.81641C9.69531 6.57943 9.7474 6.36458 9.85156 6.17188C9.95573 5.97656 10.1016 5.8099 10.2891 5.67188C10.4766 5.53125 10.6979 5.42318 10.9531 5.34766C11.2109 5.27214 11.4935 5.23438 11.8008 5.23438C12.2201 5.23438 12.5859 5.3099 12.8984 5.46094C13.2109 5.61198 13.4531 5.81901 13.625 6.08203C13.7995 6.34505 13.8867 6.64583 13.8867 6.98438H12.7227C12.7227 6.81771 12.6875 6.67188 12.6172 6.54688C12.5495 6.41927 12.4453 6.31901 12.3047 6.24609C12.1667 6.17318 11.9922 6.13672 11.7812 6.13672C11.5781 6.13672 11.4089 6.16797 11.2734 6.23047C11.138 6.29036 11.0365 6.3724 10.9688 6.47656C10.901 6.57812 10.8672 6.69271 10.8672 6.82031C10.8672 6.91667 10.8906 7.00391 10.9375 7.08203C10.987 7.16016 11.0599 7.23307 11.1562 7.30078C11.2526 7.36849 11.3711 7.43229 11.5117 7.49219C11.6523 7.55208 11.8151 7.61068 12 7.66797C12.3099 7.76172 12.582 7.86719 12.8164 7.98438C13.0534 8.10156 13.2513 8.23307 13.4102 8.37891C13.569 8.52474 13.6888 8.6901 13.7695 8.875C13.8503 9.0599 13.8906 9.26953 13.8906 9.50391C13.8906 9.7513 13.8424 9.97266 13.7461 10.168C13.6497 10.3633 13.5104 10.5286 13.3281 10.6641C13.1458 10.7995 12.9284 10.9023 12.6758 10.9727C12.4232 11.043 12.1406 11.0781 11.8281 11.0781C11.5469 11.0781 11.2695 11.0417 10.9961 10.9688C10.7227 10.8932 10.474 10.7799 10.25 10.6289C10.0286 10.4779 9.85156 10.2852 9.71875 10.0508C9.58594 9.81641 9.51953 9.53906 9.51953 9.21875H10.6953C10.6953 9.39583 10.7227 9.54557 10.7773 9.66797C10.832 9.79036 10.9089 9.88932 11.0078 9.96484C11.1094 10.0404 11.2292 10.0951 11.3672 10.1289C11.5078 10.1628 11.6615 10.1797 11.8281 10.1797C12.0312 10.1797 12.1979 10.151 12.3281 10.0938C12.4609 10.0365 12.5586 9.95703 12.6211 9.85547C12.6862 9.75391 12.7188 9.63932 12.7188 9.51172Z" fill="#005D76"/>
<path d="M16 13.7139H0V16.0001H16V13.7139Z" fill="#005D76"/>
<path d="M15.9999 0H0V2.28026H15.9999V0Z" fill="#005D76"/>
</svg>
